<?xml version="1.0" standalone="no"?><!DOCTYPE svg PUBLIC "-//W3C//DTD SVG 1.1//EN" "http://www.w3.org/Graphics/SVG/1.1/DTD/svg11.dtd"><svg t="1577259842995" class="icon" viewBox="0 0 1024 1024" version="1.1" xmlns="http://www.w3.org/2000/svg" p-id="1880" xmlns:xlink="http://www.w3.org/1999/xlink" width="48" height="48"><defs><style type="text/css"></style></defs><path d="M512 423.148308c-41.353846 81.014154-87.906462 156.987077-137.019077 232.96a1934.611692 1934.611692 0 0 0-372.263385 58.210461C165.572923 537.088 302.592 306.688 374.941538 78.769231c31.035077 113.939692 77.587692 230.4 137.019077 344.379077" fill="rgba(255,255,255,0.1)" p-id="1881"></path><path d="M372.381538 656.108308a2473.353846 2473.353846 0 0 1 274.038154 0c72.388923 106.338462 152.536615 205.075692 240.443077 288.649846-237.843692-53.169231-511.881846-53.169231-752.324923 0l5.198769-5.080616 5.159385-5.04123 5.159385-5.080616 5.198769-5.04123 5.12-5.080616 5.198769-5.080615 5.159385-5.041231 5.198769-5.080615 5.12-5.041231-5.12 5.041231 2.56-5.041231 5.198769-5.080616 5.12-5.04123 5.198769-5.12 5.159385-5.041231 5.198769-5.041231h-2.599384l2.599384-5.080615 2.56-5.041231 2.599385-5.080615 2.599384-5.080616 2.56-5.041231 2.599385-5.080615 2.599385-5.041231c62.030769-53.169231 108.544-116.499692 152.49723-182.350769" fill="rgba(255,255,255,0.1)" p-id="1882"></path><path d="M649.019077 656.108308A2122.830769 2122.830769 0 0 1 512 423.148308C568.871385 309.169231 615.424 192.748308 646.419692 78.769231c74.988308 230.4 209.408 460.839385 377.462154 635.549538-116.342154-30.365538-245.602462-48.088615-374.862769-58.210461" fill="rgba(255,255,255,0.1)" p-id="1883"></path><path d="M649.019077 656.108308c131.859692 7.601231 258.520615 27.844923 374.862769 58.210461l-134.419692 230.4c-87.906462-83.495385-168.054154-179.751385-240.443077-288.610461" fill="rgba(255,255,255,0.1)" p-id="1884"></path><path d="M372.381538 656.108308c-72.388923 106.338462-152.497231 205.075692-237.843692 286.12923l-134.419692-230.4a2155.362462 2155.362462 0 0 1 372.263384-55.72923" fill="rgba(255,255,255,0.1)" p-id="1885"></path><path d="M646.419692 78.769231c-30.995692 113.939692-77.548308 230.4-134.419692 344.379077C452.529231 309.169231 406.016 192.748308 374.980923 78.769231h271.438769z" fill="rgba(255,255,255,0.1)" p-id="1886"></path></svg>