<?xml version="1.0" standalone="no"?><!DOCTYPE svg PUBLIC "-//W3C//DTD SVG 1.1//EN" "http://www.w3.org/Graphics/SVG/1.1/DTD/svg11.dtd"><svg t="1577259813728" class="icon" viewBox="0 0 1024 1024" version="1.1" xmlns="http://www.w3.org/2000/svg" p-id="1747" xmlns:xlink="http://www.w3.org/1999/xlink" width="48" height="48"><defs><style type="text/css"></style></defs><path d="M669.538462 214.370462c-62.857846 0-120.516923 17.92-169.590154 49.545846l-166.99077 106.732307V0L39.384615 245.956923v464.620308c0 138.358154 90.387692 255.330462 216.930462 296.329846L312.32 1024c-114.491077-56.359385-193.693538-171.677538-193.693538-304.876308 0-188.770462 159.271385-342.488615 355.524923-342.488615 183.374769 0 334.020923 133.238154 353.831384 304.876308l-203.185231 1.732923a157.617231 157.617231 0 0 0-152.339692-117.011693c-86.961231 0-157.538462 70.025846-157.538461 156.278154s70.577231 156.317538 157.538461 156.317539a158.326154 158.326154 0 0 0 156.672-136.664616h200.585846a328.231385 328.231385 0 0 1-71.483077 184.477539s123.982769-144.344615 166.99077-209.250462C963.977846 658.510769 984.615385 596.992 984.615385 527.793231 984.615385 354.461538 843.421538 214.370462 669.538462 214.370462z" fill="rgba(255,255,255,0.1)" p-id="1748"></path></svg>