<?xml version="1.0" standalone="no"?><!DOCTYPE svg PUBLIC "-//W3C//DTD SVG 1.1//EN" "http://www.w3.org/Graphics/SVG/1.1/DTD/svg11.dtd"><svg t="1577259869712" class="icon" viewBox="0 0 1024 1024" version="1.1" xmlns="http://www.w3.org/2000/svg" p-id="2018" xmlns:xlink="http://www.w3.org/1999/xlink" width="48" height="48"><defs><style type="text/css"></style></defs><path d="M465.556568 2.165654L489.339388 0h47.29001l21.656541 2.165654V316.185496l-2.20503 2.165654-2.165654 4.449434h-2.165654l-2.126279 2.126279-6.496962 2.165654h-60.283934l-6.378836-2.165654-2.283781-2.126279h-4.331308v-4.449434l-2.126279-2.165654-2.165654-8.623241V2.165654z m217.707299 507.51119v152.777051l-2.165654 4.252557-2.165654 2.126279-2.165655 4.331308h-4.213181l-4.331308 2.165654-8.662617 2.165654h-90.406214v241.017612l19.333385-4.41006 19.451511-2.165654 17.325233-6.378835 17.285857-4.331309 8.505114-2.126278 8.54449-4.410059 17.285857-6.496963 17.285857-8.62324 15.120203-8.505115 17.167731-8.662616 15.120203-8.505114 12.875798-10.631393 15.120203-10.82827 28.114127-23.704069 12.954549-12.954548 10.788895-12.954549 12.993925-14.962701 10.788894-12.954549 10.788895-14.962701 8.662617-15.120203 8.544489-17.167731 8.662617-15.080827 8.505114-17.246482 6.457587-17.285857 10.82827-34.492963 6.457587-17.167731 2.165654-19.412135 4.331308-17.246482 2.165654-19.294009 2.165654-38.706145-2.165654-30.082904-2.165654-15.120203v-15.198954l-6.496962-30.004153L905.656853 391.117127l-4.331308-12.915174-4.331308-12.954549-10.670769-27.956625-15.474582-25.515343-12.993925-25.790971-17.246481-21.459663-19.372761-23.704068-19.412135-21.459663-21.499039-19.412136-21.499039-17.167731-23.782819-17.246481-25.830347-15.080828-25.909098-12.993924v352.922864l-2.165654 4.173806-2.165654 2.165654-2.165654 4.213181-4.213182 2.165655h-4.331308l-8.662616 2.126278h-127.143582l-2.126279 2.165654-2.165654 2.165654V361.270476l2.165654-4.410059 2.126279-4.213182 4.331308-2.165654h58.275782l8.505115-2.165654 6.457586-2.126278 4.331308-2.165655 4.449435-6.378835V10.670768L661.764828 23.625317l21.617165 6.457587 19.294009 6.378836 21.538415 8.505114 19.294009 10.907021 19.490886 8.386988 17.285858 10.907021 19.294009 12.954549 17.325232 10.631393 17.285857 12.993925 15.002077 14.9627 17.325232 15.080828 15.080828 15.002076 27.956625 30.319157 12.993925 17.010229 12.993924 17.285857 10.670769 19.294009 10.788894 17.246482 21.499039 38.706144 8.662616 19.451512 6.496963 21.420287 12.954549 40.911175 6.378835 21.420287 4.331308 21.57779 2.126279 21.459663 4.331308 23.743444v70.954703l-2.165654 25.987849-2.165654 25.790971-4.331308 25.751596-6.457587 23.743444-6.378836 25.790971-8.662616 23.625317-8.623241 21.656541-10.710143 23.507191-10.907022 21.459663-12.836422 21.577789-12.993925 21.459664-15.120203 19.294009-15.120203 19.294009-15.002076 19.530262-17.167731 17.246482-17.325232 17.285857-19.412136 14.962701-19.333385 15.002076-19.333384 15.080828-21.499039 12.993924-21.499039 12.915173-21.65654 10.631393-23.625318 10.710144-21.499038 8.662616-25.948474 8.465739-23.625317 6.615089-23.782819 6.457587-25.948474 4.213181-25.909098 2.126279-25.830347 2.165654-25.830346 2.165654-25.909098-2.165654-25.830347-2.047528-25.948474-2.126278-25.909097-4.213182-25.830347-6.496962-23.78282-6.575713-23.743444-8.505115-23.664692-8.662616-21.617166-10.631393-21.499038-10.670768-21.617165-12.954549-21.499039-12.954549-19.451511-15.080827-19.294009-14.962701-19.490887-15.002077-17.167731-17.285857-17.16773-17.325232-17.285857-19.451512-15.002077-19.294009-12.993924-19.294009-12.836423-21.459663-12.993924-21.57779-10.631393-21.577789-10.946397-23.507191-8.54449-21.656541-8.662616-23.625317-6.457587-25.790971-6.378835-23.743444-4.331308-25.869723-4.41006-25.751595L0.019692 537.475967v-49.298162l2.165654-21.459663 2.165654-23.743444 4.331309-21.459663 4.331308-21.57779 4.331308-21.459663 12.915173-40.871799 8.54449-21.459663 8.54449-19.412136 8.662616-19.294009 10.631393-19.412135 10.82827-17.246482 12.875798-19.294009 12.954549-17.285857 12.836423-17.010228 12.993924-15.23833 14.962701-15.080828 15.159578-14.9627 15.002077-15.120204 34.492963-25.790971 17.285857-12.836422 17.285857-12.915174 19.451511-10.907021 19.215259-8.386988 19.451511-10.907021 19.451511-8.54449 19.294009-6.33946 21.538414-6.457587 21.57779-6.496962 21.499039-6.33946V337.842036l2.165654 4.331309 2.165654 2.126278 6.496962 2.165654 6.378836 2.165654 6.457586 2.165654h58.275783l4.291932 2.165654 4.331309 4.173807v152.816427l-4.331309-4.331309H363.849578l-8.623241-2.126278h-4.331308l-2.165654-2.165654-4.331308-4.173806-2.126279-2.165654v-4.567562l-2.165654-6.457586V137.617473l-25.948474 12.915173-23.625317 15.120203-23.113435 17.128355-23.625317 17.285857-21.538415 19.412136-19.451511 21.459663-17.403983 23.625317-17.285858 23.625318-15.002076 23.585941-12.993924 25.751596-6.457587 12.993925-4.213182 14.962701-10.788895 28.035376-6.496962 28.035377-6.378836 29.964777-2.165654 15.238329v15.080828l-2.126278 30.082904v19.294009l2.126278 19.451511 2.165654 17.246482 2.165655 19.294009 4.331308 19.412136 4.331308 17.16773 6.378836 17.246482 2.244405 8.662616 4.449434 8.583865 6.378836 17.246482 6.457587 17.285857 17.325232 32.248558 21.459664 27.91725 10.710143 15.198954 10.788895 15.002076 12.875798 12.718296 12.954549 12.954549 25.830347 23.704068 15.120203 10.788895 15.002076 10.670768 30.161655 17.285858 17.285858 8.505114 15.002076 8.623241 17.325233 6.457586 17.246481 6.496963 19.333385 4.331308 17.325232 6.300084 17.246482 2.165654 19.333385 4.449435v-241.135738H364.322084l-8.662616-2.165654-2.126279-2.165654h-4.331308l-4.331308-4.331308-2.165654-2.126279v-4.213181l-2.165654-6.457587v-146.35884l2.165654 2.244405 2.165654 2.165654 6.496962 4.449435 6.378836 2.126278 6.457586 2.165654h122.85165l4.331308 2.165654 4.331308 4.331309v146.319464h32.406061v-142.263785l2.165654-4.331308 2.126278-4.291933 4.331308-2.165654h122.85165l6.457587-2.126278 6.496962-2.165654 6.378836-4.449435 4.331308-4.173806z" fill="rgba(255,255,255,0.1)" p-id="2019"></path></svg>