<?xml version="1.0" standalone="no"?><!DOCTYPE svg PUBLIC "-//W3C//DTD SVG 1.1//EN" "http://www.w3.org/Graphics/SVG/1.1/DTD/svg11.dtd"><svg t="1577260068033" class="icon" viewBox="0 0 1024 1024" version="1.1" xmlns="http://www.w3.org/2000/svg" p-id="3087" xmlns:xlink="http://www.w3.org/1999/xlink" width="48" height="48"><defs><style type="text/css"></style></defs><path d="M590.336 39.384615l-29.656615 139.933539H326.537846l-59.392 276.519384H54.429538l-24.812307 112.167385-4.883693 27.766154L0 708.135385h214.370462L155.017846 984.615385h511.212308l24.733538-112.167385 34.579693-164.352H882.215385l23.04-112.324923h-220.868923l-23.04 112.324923-36.352 164.352H244.066462l4.962461-26.151385h339.652923l59.392-278.291692h262.301539l24.654769-112.167385h-328.152616l-23.079384 112.167385-36.233846 166.163692h-273.723077l4.883692-26.072615h234.180923l23.04-112.324923 6.577231-27.766154 23.118769-112.167385H331.460923l6.695385-25.993846h339.495384l29.735385-138.24h262.301538l24.615385-112.324923h-328.073846l-24.733539 112.285539-4.883692 25.993846H361.156923l6.616615-25.993846h234.141539l23.04-112.285539 5.001846-27.569231h369.427692L1024 39.384615H590.336z m-113.664 528.620308l-5.080615 27.766154H301.725538l6.656-27.766154h168.290462z m-232.605538 0l-6.656 27.766154H89.088l4.962462-27.766154h150.055384z" fill="rgba(255,255,255,0.1)" p-id="3088"></path></svg>