<?xml version="1.0" standalone="no"?><!DOCTYPE svg PUBLIC "-//W3C//DTD SVG 1.1//EN" "http://www.w3.org/Graphics/SVG/1.1/DTD/svg11.dtd"><svg t="1577260056624" class="icon" viewBox="0 0 1024 1024" version="1.1" xmlns="http://www.w3.org/2000/svg" p-id="2821" xmlns:xlink="http://www.w3.org/1999/xlink" width="48" height="48"><defs><style type="text/css"></style></defs><path d="M1023.556928 489.585258c-7.010391-181.521877-119.019118-304.755106-119.019118-304.755106C730.932162-18.668121 508.056852 0.511995 508.056852 0.511995c-238.27454-7.364849-384.468771 173.054269-384.468771 173.054269-100.232844 119.609881-111.457347 229.610012-111.457347 229.610012-44.50417 185.18461 48.166903 344.493786 48.166903 344.493786 69.158693 125.517514 141.704429 183.491088 259.54202 238.668382 118.467738 55.13791 297.665946 47.536755 409.123294-8.467607 111.457347-56.004363 179.788971-117.64067 241.937273-234.729961 61.872612-116.774217 52.656704-253.555618 52.656704-253.555618zM459.889949 909.775518s-187.075052-10.436819-289.828486-190.816554c0 0-88.772035-126.935346-52.065941-285.653759 36.66671-158.718413 122.642466-222.048241 139.695834-238.353308 17.092752-15.753689 127.132267-81.604107 202.434899-80.501349v188.847342H380.963969s-107.833999 6.459012-111.457347 126.344583v174.472101s2.79628 107.243235 114.214243 119.609881h76.484158V909.775518h-0.27569z m-64.117512-296.641957s-19.061963 4.804875-21.858243-17.171521v-167.146636s2.79628-17.7229 17.092752-17.7229h233.548433s19.849648-3.662733 21.818859 17.7229v162.381146s4.726107 25.599744-14.020783 21.937011h-236.581018z m454.178842 122.445545c-75.617705 115.632074-219.251961 168.840158-286.205138 174.472101v-186.011678h88.772036s94.364595-19.140732 100.232844-117.64067v-198.417708s-14.808467-99.91777-119.846187-104.407571h-69.158693V114.726237s117.916359 9.294676 213.659402 97.948559c95.191663 88.378193 119.846186 176.441313 130.479926 224.017452 10.63374 47.536755 17.644131 182.939709-57.93419 298.886858z" fill="rgba(255,255,255,0.1)" p-id="2822"></path></svg>