<?xml version="1.0" standalone="no"?><!DOCTYPE svg PUBLIC "-//W3C//DTD SVG 1.1//EN" "http://www.w3.org/Graphics/SVG/1.1/DTD/svg11.dtd"><svg t="1577259773458" class="icon" viewBox="0 0 1024 1024" version="1.1" xmlns="http://www.w3.org/2000/svg" p-id="1614" xmlns:xlink="http://www.w3.org/1999/xlink" width="48" height="48"><defs><style type="text/css"></style></defs><path d="M476.553846 54.390154s84.204308-64.512 228.942769-17.604923c0 0 48.718769 17.604923 104.841847 67.465846L984.615385 286.129231l-93.026462 92.435692-265.846154-268.445538S581.435077 55.847385 476.553846 54.390154z m384 356.430769l-109.292308 105.590154s-17.723077 24.969846-32.492307 1.496615l-200.861539-195.072s-17.723077-23.473231-30.995692-2.953846l-202.358154 205.351385s-13.272615 20.519385 2.953846 29.341538l197.907693 196.529231s16.265846 26.387692 31.035077 5.868308l205.272615-205.351385s5.907692-17.604923 38.4-13.193846h209.723077s8.861538 211.219692-153.6 343.236923c0 0-211.180308 209.723077-500.657231 80.659692 0 0-279.118769-96.807385-276.164923-456.152615 0 0 7.364923-240.561231 227.406769-368.167385 0 0 161.004308-118.823385 289.476923-30.798769l304.246154 303.616z" fill="#003A90" p-id="1615"></path></svg>