<?xml version="1.0" encoding="utf-8"?>
<!-- Generator: Adobe Illustrator 22.0.0, SVG Export Plug-In . SVG Version: 6.00 Build 0)  -->
<svg version="1.1" id="图层_1" xmlns="http://www.w3.org/2000/svg" xmlns:xlink="http://www.w3.org/1999/xlink" x="0px" y="0px"
	 viewBox="0 0 1366 768" style="enable-background:new 0 0 1366 768;" xml:space="preserve">
<style type="text/css">
	.st0{display:none;fill:#243154;}
	.st1{display:none;}
</style>
<g>
	<path class="st0" d="M683,768c-211.8,0-384-172.2-384-384S471.2,0,683,0s384,172.2,384,384S894.8,768,683,768L683,768z M683,51.2
		c-183.5,0-332.8,149.3-332.8,332.8S499.5,716.8,683,716.8s332.8-149.3,332.8-332.8S866.5,51.2,683,51.2L683,51.2z M683,51.2"/>
</g>
<path d="M887.8,384H478.2c-14.2,0-25.6,11.4-25.6,25.6c0,60.6,23.4,117.9,65.8,161.2C562.1,615.4,620.6,640,683,640
	s120.9-24.6,164.6-69.2c42.5-43.3,65.8-100.6,65.8-161.2C913.4,395.4,902,384,887.8,384z M811,535c-34,34.6-79.4,53.8-128,53.8
	s-94-19-128-53.8c-27-27.6-44.1-62.3-49.4-99.8h354.7C855,472.7,838,507.5,811,535z"/>
<path d="M510.2,326.4c-31.8,0-57.6-25.8-57.6-57.6s25.8-57.6,57.6-57.6c31.8,0,57.6,25.8,57.6,57.6S542,326.4,510.2,326.4
	L510.2,326.4z"/>
<path d="M855.8,326.4c-31.8,0-57.6-25.8-57.6-57.6s25.8-57.6,57.6-57.6s57.6,25.8,57.6,57.6S887.6,326.4,855.8,326.4L855.8,326.4z"
	/>
<path d="M798.2,307.2"/>
<path d="M954.5,112.5C882,39.9,785.6,0,683,0C580.4,0,484,39.9,411.5,112.5C338.9,185,299,281.4,299,384
	c0,102.6,39.9,199,112.5,271.5S580.4,768,683,768c102.6,0,199-40,271.5-112.5S1067,486.6,1067,384
	C1067,281.4,1027.1,185,954.5,112.5z M683,721.4C497,721.4,345.6,570,345.6,384C345.6,198,497,46.6,683,46.6
	c186,0,337.4,151.3,337.4,337.4C1020.4,570,869,721.4,683,721.4z"/>
<path class="st1" d="M707,573.4c53-52.5,79.9-116.2,79.9-189.4S760,247.1,707,194.6l40.5-39c31.9,31.4,56.2,66.4,72.3,104
	c16.4,38.2,24.6,80.3,24.6,125c0,44.7-8.3,86.6-24.6,124.7c-16.1,37.4-40.4,72.2-72.3,103.3L707,573.4z"/>
<path class="st1" d="M620,489.6c29.2-29,44-64.5,44-105.5c0-41.1-14.8-76.6-44-105.5l40.5-38.1c39.9,39.8,60.1,88.3,60.1,144.1
	c0,55.8-20.2,104-60.1,143.1L620,489.6z"/>
<path class="st1" d="M510.4,384l62-59.7c16.1,16.3,24.2,36.3,24.2,59.7c0,23.4-8.1,43.5-24.2,59.7L510.4,384z"/>
</svg>
