<?xml version="1.0" encoding="utf-8"?>
<!-- Generator: Adobe Illustrator 22.0.0, SVG Export Plug-In . SVG Version: 6.00 Build 0)  -->
<svg version="1.1" id="图层_1" xmlns="http://www.w3.org/2000/svg" xmlns:xlink="http://www.w3.org/1999/xlink" x="0px" y="0px"
	 viewBox="0 0 1366 768" style="enable-background:new 0 0 1366 768;" xml:space="preserve">
<style type="text/css">
	.st0{display:none;}
</style>
<path d="M1773.6,91.1c-72.5-72.5-169-112.5-271.5-112.5c-102.6,0-199,39.9-271.5,112.5c-72.5,72.5-112.5,169-112.5,271.5
	c0,102.6,39.9,199,112.5,271.5c72.5,72.5,169,112.5,271.5,112.5c102.6,0,199-40,271.5-112.5s112.5-169,112.5-271.5
	C1886.1,260.1,1846.2,163.7,1773.6,91.1z M1502.1,700c-186,0-337.4-151.3-337.4-337.4c0-186,151.3-337.4,337.4-337.4
	c186,0,337.4,151.3,337.4,337.4C1839.5,548.7,1688.1,700,1502.1,700z"/>
<path d="M1736.7,492.9"/>
<g>
	<rect x="1424.6" y="342.3" width="64.4" height="64.4"/>
	<rect x="1472.9" y="245.8" width="64.4" height="64.4"/>
	<rect x="1376.3" y="245.8" width="64.4" height="64.4"/>
	<rect x="1569.4" y="245.8" width="64.4" height="64.4"/>
	<rect x="1521.2" y="342.3" width="64.4" height="64.4"/>
	<rect x="1279.7" y="245.8" width="64.4" height="64.4"/>
	<rect x="1666.1" y="245.8" width="64.4" height="64.4"/>
	<path d="M1666.1,245.8"/>
	<rect x="1279.7" y="245.8" width="64.4" height="64.4"/>
	<rect x="1328" y="342.3" width="64.4" height="64.4"/>
	<rect x="1376.3" y="245.8" width="64.4" height="64.4"/>
	<rect x="1424.6" y="342.3" width="64.4" height="64.4"/>
	<rect x="1472.9" y="245.8" width="64.4" height="64.4"/>
	<rect x="1521.2" y="342.3" width="64.4" height="64.4"/>
	<rect x="1569.4" y="245.8" width="64.4" height="64.4"/>
	<rect x="1360.2" y="438.9" width="289.7" height="64.4"/>
	<rect x="1617.7" y="342.3" width="64.4" height="64.4"/>
	<rect x="1666.1" y="245.8" width="64.4" height="64.4"/>
	<path class="st0" d="M1762.6,149.2h-515.1c-35.4,0-64.4,29-64.4,64.4v321.9c0,35.4,29,64.4,64.4,64.4h515.1
		c35.4,0,64.4-29,64.4-64.4V213.6C1827,178.2,1798,149.2,1762.6,149.2z M1794.8,535.5L1794.8,535.5c-0.1,17.7-14.5,32.2-32.3,32.2
		h-515c-17.7,0-32.2-14.5-32.2-32.2V213.6c0-17.7,14.4-32.2,32.2-32.2h515.1c17.7,0,32.2,14.4,32.2,32.2V535.5z"/>
	<rect x="1279.7" y="245.8" width="64.4" height="64.4"/>
	<rect x="1328" y="342.3" width="64.4" height="64.4"/>
	<rect x="1376.3" y="245.8" width="64.4" height="64.4"/>
	<rect x="1424.6" y="342.3" width="64.4" height="64.4"/>
	<rect x="1472.9" y="245.8" width="64.4" height="64.4"/>
	<rect x="1521.2" y="342.3" width="64.4" height="64.4"/>
	<rect x="1569.4" y="245.8" width="64.4" height="64.4"/>
	<rect x="1360.2" y="438.9" width="289.7" height="64.4"/>
	<rect x="1617.7" y="342.3" width="64.4" height="64.4"/>
	<rect x="1666.1" y="245.8" width="64.4" height="64.4"/>
	<rect x="1617.7" y="342.3" width="64.4" height="64.4"/>
	<rect x="1360.2" y="438.9" width="289.7" height="64.4"/>
	<rect x="1328" y="342.3" width="64.4" height="64.4"/>
	<path d="M1328,342.3"/>
</g>
</svg>
