<?xml version="1.0" encoding="utf-8"?>
<!-- Generator: Adobe Illustrator 22.0.0, SVG Export Plug-In . SVG Version: 6.00 Build 0)  -->
<svg version="1.1" id="图层_1" xmlns="http://www.w3.org/2000/svg" xmlns:xlink="http://www.w3.org/1999/xlink" x="0px" y="0px"
	 viewBox="0 0 1366 768" style="enable-background:new 0 0 1366 768;" xml:space="preserve">
<style type="text/css">
	.st0{display:none;}
	.st1{display:inline;}
</style>
<g class="st0">
	<g class="st1">
		<defs>
			<rect id="SVGID_1_" x="367" y="68" width="631.9" height="632.9"/>
		</defs>
		<clipPath id="SVGID_2_">
			<use xlink:href="#SVGID_1_"  style="overflow:visible;"/>
		</clipPath>
	</g>
</g>
<path class="st0" d="M682.9,67.9c-174.5,0-316,141.5-316,316c0,174.5,141.5,316,316,316c174.5,0,316-141.5,316-316
	C998.9,209.4,857.4,67.9,682.9,67.9L682.9,67.9z M682.9,657.8C531.6,657.8,409,535.2,409,383.9c0-151.3,122.6-273.9,273.9-273.9
	c151.3,0,273.9,122.6,273.9,273.9S834.1,657.8,682.9,657.8L682.9,657.8z M543.8,383.9l53.6,51.6c14.5-14,21.8-31.2,21.8-51.6
	c0-20.4-7.3-37.6-21.8-51.6L543.8,383.9z M740.7,194.3l-36,34.7c44.1,43,66.2,94.7,66.2,154.9c0,60.2-22.1,111.9-66.2,154.9l36,34.7
	c54.2-52.2,81.2-115.2,81.2-189.2C821.9,310.4,794.8,247,740.7,194.3L740.7,194.3z M669.5,263.7l-36,33.9
	c24.6,23.7,36.9,52.4,36.9,86.3c0,33.9-12.3,62.7-36.9,86.3l36,33.9c34.1-32.8,51.1-72.7,51.1-119.8
	C720.6,337.3,703.5,297.1,669.5,263.7L669.5,263.7z M669.5,263.7"/>
<path d="M682.9,697.9c-83.9,0-162.7-32.7-222-92c-59.3-59.3-92-138.2-92-222c0-83.9,32.7-162.7,92-222c59.3-59.3,138.2-92,222-92
	c83.9,0,162.7,32.7,222,92c59.3,59.3,92,138.2,92,222c0,83.9-32.7,162.7-92,222C845.6,665.3,766.7,697.9,682.9,697.9z M682.9,108.1
	C530.8,108.1,407,231.8,407,383.9c0,152.1,123.8,275.9,275.9,275.9c152.1,0,275.9-123.8,275.9-275.9
	C958.7,231.8,835,108.1,682.9,108.1z M702.5,538.8c43.3-42.9,65.3-95,65.3-154.9S745.8,272,702.5,229l33.1-31.9
	c26.1,25.7,46,54.3,59.1,85c13.4,31.3,20.2,65.6,20.2,102.2c0,36.5-6.8,70.8-20.1,102c-13.1,30.6-33,59-59.1,84.4L702.5,538.8z
	 M631.4,470.2c23.9-23.7,36-52.7,36-86.3c0-33.6-12.1-62.6-36-86.3l33.1-31.1c32.6,32.5,49.1,72.2,49.1,117.8
	c0,45.7-16.5,85-49.1,117L631.4,470.2z M541.7,383.9l50.7-48.8c13.1,13.3,19.8,29.7,19.8,48.8c0,19.1-6.7,35.5-19.8,48.8
	L541.7,383.9z"/>
</svg>
